<mxfile host="Electron" agent="Mozilla/5.0 (Windows NT 10.0; Win64; x64) AppleWebKit/537.36 (KHTML, like Gecko) draw.io/26.0.16 Chrome/132.0.6834.196 Electron/34.2.0 Safari/537.36" version="26.0.16">
  <diagram name="페이지-1" id="3XBMeIBT7PRe0lWk7dLZ">
    <mxGraphModel dx="19467" dy="11800" grid="1" gridSize="10" guides="1" tooltips="1" connect="1" arrows="1" fold="1" page="1" pageScale="1" pageWidth="827" pageHeight="1169" math="0" shadow="0">
      <root>
        <mxCell id="0" />
        <mxCell id="1" parent="0" />
        <mxCell id="9xxqsx5MV4gy2-c3e4il-1" value="TOP_CLOCK" style="rounded=0;whiteSpace=wrap;html=1;fontSize=200;strokeWidth=10;labelPosition=center;verticalLabelPosition=top;align=center;verticalAlign=bottom;fontStyle=1" parent="1" vertex="1">
          <mxGeometry x="-720" y="390" width="10630" height="6230" as="geometry" />
        </mxCell>
        <mxCell id="9xxqsx5MV4gy2-c3e4il-2" value="&lt;font&gt;Mux&lt;/font&gt;" style="shadow=0;dashed=0;align=center;html=1;strokeWidth=10;shape=mxgraph.electrical.abstract.mux2;whiteSpace=wrap;fontSize=160;direction=east;flipV=1;fontStyle=1" parent="1" vertex="1">
          <mxGeometry x="5075" y="1820" width="860" height="4440" as="geometry" />
        </mxCell>
        <mxCell id="9xxqsx5MV4gy2-c3e4il-3" value="FND_CONTROLLER" style="rounded=0;whiteSpace=wrap;html=1;fontSize=160;strokeWidth=10;labelPosition=center;verticalLabelPosition=top;align=center;verticalAlign=bottom;fontStyle=1" parent="1" vertex="1">
          <mxGeometry x="6295" y="1780" width="2495" height="4470" as="geometry" />
        </mxCell>
        <mxCell id="9xxqsx5MV4gy2-c3e4il-6" value="BTN_DEBOUNCE" style="rounded=0;whiteSpace=wrap;html=1;fontSize=160;strokeWidth=10;labelPosition=center;verticalLabelPosition=top;align=center;verticalAlign=bottom;fontStyle=1" parent="1" vertex="1">
          <mxGeometry x="-310" y="1840" width="1935" height="4450" as="geometry" />
        </mxCell>
        <mxCell id="9xxqsx5MV4gy2-c3e4il-7" value="STOPWATCH" style="rounded=0;whiteSpace=wrap;html=1;fontSize=160;strokeWidth=10;labelPosition=center;verticalLabelPosition=top;align=center;verticalAlign=bottom;fontStyle=1" parent="1" vertex="1">
          <mxGeometry x="2055" y="1840" width="2760" height="1920" as="geometry" />
        </mxCell>
        <mxCell id="9xxqsx5MV4gy2-c3e4il-8" value="WATCH" style="rounded=0;whiteSpace=wrap;html=1;fontSize=160;strokeWidth=3;labelPosition=center;verticalLabelPosition=top;align=center;verticalAlign=bottom;fontStyle=1" parent="1" vertex="1">
          <mxGeometry x="2055" y="4360" width="2760" height="1920" as="geometry" />
        </mxCell>
        <mxCell id="9xxqsx5MV4gy2-c3e4il-9" value="LED_DISPLAY" style="rounded=0;whiteSpace=wrap;html=1;fontSize=120;strokeWidth=10;labelPosition=center;verticalLabelPosition=top;align=center;verticalAlign=bottom;fontStyle=1" parent="1" vertex="1">
          <mxGeometry x="7560" y="800" width="606.5" height="430" as="geometry" />
        </mxCell>
        <mxCell id="9xxqsx5MV4gy2-c3e4il-10" value="time_counter_watch_msec" style="rounded=0;whiteSpace=wrap;html=1;fontSize=40;strokeWidth=3;" parent="1" vertex="1">
          <mxGeometry x="3749" y="4650" width="790" height="280" as="geometry" />
        </mxCell>
        <mxCell id="9xxqsx5MV4gy2-c3e4il-11" value="time_counter_watch_sec" style="rounded=0;whiteSpace=wrap;html=1;fontSize=40;strokeWidth=3;" parent="1" vertex="1">
          <mxGeometry x="3749" y="5010" width="800" height="270" as="geometry" />
        </mxCell>
        <mxCell id="9xxqsx5MV4gy2-c3e4il-12" value="time_counter_watch_min" style="rounded=0;whiteSpace=wrap;html=1;fontSize=40;strokeWidth=3;" parent="1" vertex="1">
          <mxGeometry x="3750" y="5410" width="800" height="270" as="geometry" />
        </mxCell>
        <mxCell id="9xxqsx5MV4gy2-c3e4il-13" value="time_counter_watch_hour" style="rounded=0;whiteSpace=wrap;html=1;fontSize=40;labelPosition=center;verticalLabelPosition=middle;align=center;verticalAlign=middle;strokeWidth=3;" parent="1" vertex="1">
          <mxGeometry x="3750" y="5790" width="800" height="310" as="geometry" />
        </mxCell>
        <mxCell id="9xxqsx5MV4gy2-c3e4il-14" value="clk_div_100hz" style="rounded=0;whiteSpace=wrap;html=1;fontSize=40;strokeWidth=3;" parent="1" vertex="1">
          <mxGeometry x="2320" y="4660" width="740" height="350" as="geometry" />
        </mxCell>
        <mxCell id="9xxqsx5MV4gy2-c3e4il-15" value="stopwatch_cu" style="rounded=0;whiteSpace=wrap;html=1;fontSize=80;labelPosition=center;verticalLabelPosition=bottom;align=center;verticalAlign=top;strokeWidth=3;" parent="1" vertex="1">
          <mxGeometry x="2310" y="2190" width="930" height="1100" as="geometry" />
        </mxCell>
        <mxCell id="9xxqsx5MV4gy2-c3e4il-16" value="stopwatch_dp" style="rounded=0;whiteSpace=wrap;html=1;fontSize=80;labelPosition=center;verticalLabelPosition=bottom;align=center;verticalAlign=top;strokeWidth=3;" parent="1" vertex="1">
          <mxGeometry x="3620" y="2190" width="930" height="1100" as="geometry" />
        </mxCell>
        <mxCell id="9xxqsx5MV4gy2-c3e4il-43" value="time_counter" style="rounded=0;whiteSpace=wrap;html=1;fontSize=40;strokeWidth=3;" parent="1" vertex="1">
          <mxGeometry x="4170" y="2585" width="280" height="130" as="geometry" />
        </mxCell>
        <mxCell id="9xxqsx5MV4gy2-c3e4il-46" value="clk_div_100hz" style="rounded=0;whiteSpace=wrap;html=1;fontSize=40;strokeWidth=3;" parent="1" vertex="1">
          <mxGeometry x="3710" y="2320" width="280" height="150" as="geometry" />
        </mxCell>
        <mxCell id="9xxqsx5MV4gy2-c3e4il-47" value="time_counter" style="rounded=0;whiteSpace=wrap;html=1;fontSize=40;strokeWidth=3;" parent="1" vertex="1">
          <mxGeometry x="4170" y="2335" width="280" height="130" as="geometry" />
        </mxCell>
        <mxCell id="9xxqsx5MV4gy2-c3e4il-48" value="time_counter" style="rounded=0;whiteSpace=wrap;html=1;fontSize=40;strokeWidth=3;" parent="1" vertex="1">
          <mxGeometry x="4170" y="3060" width="280" height="130" as="geometry" />
        </mxCell>
        <mxCell id="9xxqsx5MV4gy2-c3e4il-49" value="time_counter" style="rounded=0;whiteSpace=wrap;html=1;fontSize=40;strokeWidth=3;" parent="1" vertex="1">
          <mxGeometry x="4170" y="2825" width="280" height="130" as="geometry" />
        </mxCell>
        <mxCell id="9xxqsx5MV4gy2-c3e4il-55" value="Demux" style="shadow=0;dashed=0;align=center;html=1;strokeWidth=3;shape=mxgraph.electrical.abstract.mux2;operation=demux;whiteSpace=wrap;fontSize=80;flipV=1;" parent="1" vertex="1">
          <mxGeometry x="-170" y="3420" width="450" height="980" as="geometry" />
        </mxCell>
        <mxCell id="9xxqsx5MV4gy2-c3e4il-59" value="btn_debounce_clear" style="rounded=0;whiteSpace=wrap;html=1;fontSize=80;strokeWidth=3;" parent="1" vertex="1">
          <mxGeometry x="570" y="2870" width="970" height="270" as="geometry" />
        </mxCell>
        <mxCell id="9xxqsx5MV4gy2-c3e4il-60" value="btn_debounce_reset" style="rounded=0;whiteSpace=wrap;html=1;fontSize=80;strokeWidth=4;" parent="1" vertex="1">
          <mxGeometry x="570" y="2410" width="970" height="270" as="geometry" />
        </mxCell>
        <mxCell id="9xxqsx5MV4gy2-c3e4il-62" value="watch&lt;div&gt;btn&lt;/div&gt;" style="text;html=1;align=center;verticalAlign=middle;whiteSpace=wrap;rounded=0;fontSize=80;strokeWidth=3;" parent="1" vertex="1">
          <mxGeometry x="320" y="4110" width="60" height="30" as="geometry" />
        </mxCell>
        <mxCell id="9xxqsx5MV4gy2-c3e4il-63" value="stopwatch&lt;div&gt;btn&lt;/div&gt;" style="text;html=1;align=center;verticalAlign=middle;whiteSpace=wrap;rounded=0;fontSize=80;strokeWidth=3;" parent="1" vertex="1">
          <mxGeometry x="310" y="3490" width="60" height="30" as="geometry" />
        </mxCell>
        <mxCell id="9xxqsx5MV4gy2-c3e4il-65" value="btn_debounce_hour" style="rounded=0;whiteSpace=wrap;html=1;fontSize=80;strokeWidth=3;" parent="1" vertex="1">
          <mxGeometry x="570" y="5920" width="970" height="270" as="geometry" />
        </mxCell>
        <mxCell id="9xxqsx5MV4gy2-c3e4il-66" value="btn_debounce_min" style="rounded=0;whiteSpace=wrap;html=1;fontSize=80;strokeWidth=3;" parent="1" vertex="1">
          <mxGeometry x="570" y="5500" width="970" height="270" as="geometry" />
        </mxCell>
        <mxCell id="9xxqsx5MV4gy2-c3e4il-67" value="btn_debounce_sec" style="rounded=0;whiteSpace=wrap;html=1;fontSize=80;strokeWidth=3;" parent="1" vertex="1">
          <mxGeometry x="570" y="5090" width="970" height="270" as="geometry" />
        </mxCell>
        <mxCell id="9xxqsx5MV4gy2-c3e4il-68" value="clk_div" style="rounded=0;whiteSpace=wrap;html=1;fontSize=80;" parent="1" vertex="1">
          <mxGeometry x="6480" y="2070" width="547" height="480" as="geometry" />
        </mxCell>
        <mxCell id="9xxqsx5MV4gy2-c3e4il-69" value="count_8" style="rounded=0;whiteSpace=wrap;html=1;fontSize=80;" parent="1" vertex="1">
          <mxGeometry x="7309.5" y="2070" width="547" height="480" as="geometry" />
        </mxCell>
        <mxCell id="9xxqsx5MV4gy2-c3e4il-70" value="decoder" style="rounded=0;whiteSpace=wrap;html=1;fontSize=80;" parent="1" vertex="1">
          <mxGeometry x="8136.5" y="2070" width="547" height="480" as="geometry" />
        </mxCell>
        <mxCell id="9xxqsx5MV4gy2-c3e4il-71" value="Digit_splitter_msec" style="rounded=0;whiteSpace=wrap;html=1;fontSize=80;" parent="1" vertex="1">
          <mxGeometry x="6530" y="3610" width="800" height="480" as="geometry" />
        </mxCell>
        <mxCell id="9xxqsx5MV4gy2-c3e4il-72" value="Digit_splitter_sec" style="rounded=0;whiteSpace=wrap;html=1;fontSize=80;" parent="1" vertex="1">
          <mxGeometry x="6530" y="4200" width="800" height="460" as="geometry" />
        </mxCell>
        <mxCell id="9xxqsx5MV4gy2-c3e4il-73" value="Digit_splitter_min" style="rounded=0;whiteSpace=wrap;html=1;fontSize=80;" parent="1" vertex="1">
          <mxGeometry x="6530" y="4740" width="800" height="460" as="geometry" />
        </mxCell>
        <mxCell id="9xxqsx5MV4gy2-c3e4il-74" value="Digit_splitter_hour" style="rounded=0;whiteSpace=wrap;html=1;fontSize=80;" parent="1" vertex="1">
          <mxGeometry x="6530" y="5340" width="800" height="480" as="geometry" />
        </mxCell>
        <mxCell id="9xxqsx5MV4gy2-c3e4il-75" value="mux_8x1" style="rounded=0;whiteSpace=wrap;html=1;fontSize=80;" parent="1" vertex="1">
          <mxGeometry x="7520" y="3610" width="547" height="1050" as="geometry" />
        </mxCell>
        <mxCell id="9xxqsx5MV4gy2-c3e4il-76" value="mux_8x1" style="rounded=0;whiteSpace=wrap;html=1;fontSize=80;" parent="1" vertex="1">
          <mxGeometry x="7520" y="4750" width="547" height="1060" as="geometry" />
        </mxCell>
        <mxCell id="9xxqsx5MV4gy2-c3e4il-77" value="mux_2x1" style="rounded=0;whiteSpace=wrap;html=1;fontSize=80;" parent="1" vertex="1">
          <mxGeometry x="8180" y="4140" width="547" height="980" as="geometry" />
        </mxCell>
        <mxCell id="9xxqsx5MV4gy2-c3e4il-78" value="bcdtoseg" style="rounded=0;whiteSpace=wrap;html=1;fontSize=80;" parent="1" vertex="1">
          <mxGeometry x="8190" y="5330" width="547" height="480" as="geometry" />
        </mxCell>
        <mxCell id="Q2xLL5PEza8aKWVjb2cV-5" value="" style="edgeStyle=orthogonalEdgeStyle;rounded=0;orthogonalLoop=1;jettySize=auto;html=1;" edge="1" parent="1" source="9xxqsx5MV4gy2-c3e4il-79" target="Q2xLL5PEza8aKWVjb2cV-4">
          <mxGeometry relative="1" as="geometry" />
        </mxCell>
        <mxCell id="9xxqsx5MV4gy2-c3e4il-79" value="mux_2x1" style="rounded=0;whiteSpace=wrap;html=1;fontSize=80;" parent="1" vertex="1">
          <mxGeometry x="8080" y="2960" width="547" height="480" as="geometry" />
        </mxCell>
        <mxCell id="9xxqsx5MV4gy2-c3e4il-96" value="" style="line;strokeWidth=3;rotatable=0;dashed=0;labelPosition=right;align=left;verticalAlign=middle;spacingTop=0;spacingLeft=6;points=[];portConstraint=eastwest;" parent="1" vertex="1">
          <mxGeometry x="3250" y="2545" width="370" height="10" as="geometry" />
        </mxCell>
        <mxCell id="9xxqsx5MV4gy2-c3e4il-97" value="" style="line;strokeWidth=3;rotatable=0;dashed=0;labelPosition=right;align=left;verticalAlign=middle;spacingTop=0;spacingLeft=6;points=[];portConstraint=eastwest;" parent="1" vertex="1">
          <mxGeometry x="3060" y="4720" width="689" height="10" as="geometry" />
        </mxCell>
        <mxCell id="9xxqsx5MV4gy2-c3e4il-98" value="" style="line;strokeWidth=3;rotatable=0;dashed=0;labelPosition=right;align=left;verticalAlign=middle;spacingTop=0;spacingLeft=6;points=[];portConstraint=eastwest;" parent="1" vertex="1">
          <mxGeometry x="1540" y="5220" width="2210" height="10" as="geometry" />
        </mxCell>
        <mxCell id="9xxqsx5MV4gy2-c3e4il-99" value="" style="line;strokeWidth=3;rotatable=0;dashed=0;labelPosition=right;align=left;verticalAlign=middle;spacingTop=0;spacingLeft=6;points=[];portConstraint=eastwest;" parent="1" vertex="1">
          <mxGeometry x="1540" y="5630" width="2210" height="10" as="geometry" />
        </mxCell>
        <mxCell id="9xxqsx5MV4gy2-c3e4il-100" value="" style="line;strokeWidth=3;rotatable=0;dashed=0;labelPosition=right;align=left;verticalAlign=middle;spacingTop=0;spacingLeft=6;points=[];portConstraint=eastwest;" parent="1" vertex="1">
          <mxGeometry x="1540" y="6050" width="2210" height="10" as="geometry" />
        </mxCell>
        <mxCell id="9xxqsx5MV4gy2-c3e4il-101" value="" style="line;strokeWidth=3;rotatable=0;dashed=0;labelPosition=right;align=left;verticalAlign=middle;spacingTop=0;spacingLeft=6;points=[];portConstraint=eastwest;" parent="1" vertex="1">
          <mxGeometry x="270" y="3540" width="170" height="10" as="geometry" />
        </mxCell>
        <mxCell id="9xxqsx5MV4gy2-c3e4il-102" value="reset" style="line;strokeWidth=3;rotatable=0;dashed=0;labelPosition=left;align=right;verticalAlign=middle;spacingTop=0;spacingLeft=6;points=[];portConstraint=eastwest;fontSize=80;verticalLabelPosition=middle;" parent="1" vertex="1">
          <mxGeometry x="430" y="2535" width="140" height="10" as="geometry" />
        </mxCell>
        <mxCell id="9xxqsx5MV4gy2-c3e4il-103" value="" style="line;strokeWidth=3;rotatable=0;dashed=0;labelPosition=right;align=left;verticalAlign=middle;spacingTop=0;spacingLeft=6;points=[];portConstraint=eastwest;" parent="1" vertex="1">
          <mxGeometry x="430" y="3000" width="140" height="10" as="geometry" />
        </mxCell>
        <mxCell id="9xxqsx5MV4gy2-c3e4il-104" value="" style="line;strokeWidth=3;direction=south;html=1;" parent="1" vertex="1">
          <mxGeometry x="430" y="3000" width="10" height="550" as="geometry" />
        </mxCell>
        <mxCell id="9xxqsx5MV4gy2-c3e4il-105" value="" style="line;strokeWidth=3;rotatable=0;dashed=0;labelPosition=right;align=left;verticalAlign=middle;spacingTop=0;spacingLeft=6;points=[];portConstraint=eastwest;" parent="1" vertex="1">
          <mxGeometry x="270" y="4280" width="170" height="10" as="geometry" />
        </mxCell>
        <mxCell id="9xxqsx5MV4gy2-c3e4il-106" value="" style="line;strokeWidth=3;rotatable=0;dashed=0;labelPosition=right;align=left;verticalAlign=middle;spacingTop=0;spacingLeft=6;points=[];portConstraint=eastwest;" parent="1" vertex="1">
          <mxGeometry x="440" y="5640" width="130" height="10" as="geometry" />
        </mxCell>
        <mxCell id="9xxqsx5MV4gy2-c3e4il-107" value="" style="line;strokeWidth=3;rotatable=0;dashed=0;labelPosition=right;align=left;verticalAlign=middle;spacingTop=0;spacingLeft=6;points=[];portConstraint=eastwest;" parent="1" vertex="1">
          <mxGeometry x="435" y="5210" width="130" height="10" as="geometry" />
        </mxCell>
        <mxCell id="9xxqsx5MV4gy2-c3e4il-108" value="" style="line;strokeWidth=3;rotatable=0;dashed=0;labelPosition=right;align=left;verticalAlign=middle;spacingTop=0;spacingLeft=6;points=[];portConstraint=eastwest;" parent="1" vertex="1">
          <mxGeometry x="440" y="6050" width="130" height="10" as="geometry" />
        </mxCell>
        <mxCell id="9xxqsx5MV4gy2-c3e4il-109" value="" style="line;strokeWidth=3;direction=south;html=1;" parent="1" vertex="1">
          <mxGeometry x="440" y="4280" width="10" height="1780" as="geometry" />
        </mxCell>
        <mxCell id="9xxqsx5MV4gy2-c3e4il-110" value="" style="line;strokeWidth=1;rotatable=0;dashed=0;labelPosition=right;align=left;verticalAlign=middle;spacingTop=0;spacingLeft=6;points=[];portConstraint=eastwest;" parent="1" vertex="1">
          <mxGeometry x="-310" y="3910" width="150" height="10" as="geometry" />
        </mxCell>
        <mxCell id="9xxqsx5MV4gy2-c3e4il-111" value="" style="line;strokeWidth=3;rotatable=0;dashed=0;labelPosition=right;align=left;verticalAlign=middle;spacingTop=0;spacingLeft=6;points=[];portConstraint=eastwest;" parent="1" vertex="1">
          <mxGeometry x="1540" y="3000" width="770" height="10" as="geometry" />
        </mxCell>
        <mxCell id="9xxqsx5MV4gy2-c3e4il-114" value="" style="line;strokeWidth=3;rotatable=0;dashed=0;labelPosition=right;align=left;verticalAlign=middle;spacingTop=0;spacingLeft=6;points=[];portConstraint=eastwest;" parent="1" vertex="1">
          <mxGeometry x="1540" y="2540" width="770" height="10" as="geometry" />
        </mxCell>
        <mxCell id="9xxqsx5MV4gy2-c3e4il-115" value="" style="line;strokeWidth=3;rotatable=0;dashed=0;labelPosition=right;align=left;verticalAlign=middle;spacingTop=0;spacingLeft=6;points=[];portConstraint=eastwest;" parent="1" vertex="1">
          <mxGeometry x="3240" y="3000" width="380" height="10" as="geometry" />
        </mxCell>
        <mxCell id="9xxqsx5MV4gy2-c3e4il-116" value="SW&lt;div&gt;[1:0]&lt;/div&gt;" style="rounded=0;whiteSpace=wrap;html=1;strokeWidth=10;fontSize=120;fontStyle=1" parent="1" vertex="1">
          <mxGeometry x="620" y="600" width="650" height="330" as="geometry" />
        </mxCell>
        <mxCell id="9xxqsx5MV4gy2-c3e4il-117" value="RESET" style="rounded=0;whiteSpace=wrap;html=1;strokeWidth=10;fontSize=120;fontStyle=1" parent="1" vertex="1">
          <mxGeometry x="-300" y="1100" width="670" height="330" as="geometry" />
        </mxCell>
        <mxCell id="9xxqsx5MV4gy2-c3e4il-118" value="CLK&lt;div&gt;&lt;font style=&quot;font-size: 45px;&quot;&gt;100Mhz&lt;/font&gt;&lt;/div&gt;" style="rounded=0;whiteSpace=wrap;html=1;strokeWidth=10;fontSize=120;fontStyle=1" parent="1" vertex="1">
          <mxGeometry x="-310" y="600" width="670" height="330" as="geometry" />
        </mxCell>
        <mxCell id="9xxqsx5MV4gy2-c3e4il-119" value="FND_COMM" style="rounded=0;whiteSpace=wrap;html=1;strokeWidth=10;fontSize=120;fontStyle=1" parent="1" vertex="1">
          <mxGeometry x="9070" y="2135" width="720" height="330" as="geometry" />
        </mxCell>
        <mxCell id="9xxqsx5MV4gy2-c3e4il-120" value="FND_FONT" style="rounded=0;whiteSpace=wrap;html=1;strokeWidth=10;fontSize=120;fontStyle=1" parent="1" vertex="1">
          <mxGeometry x="9070" y="5415" width="710" height="330" as="geometry" />
        </mxCell>
        <mxCell id="Q2xLL5PEza8aKWVjb2cV-1" value="sw[1]" style="line;strokeWidth=2;direction=south;html=1;fontSize=100;labelPosition=center;verticalLabelPosition=top;align=center;verticalAlign=bottom;" vertex="1" parent="1">
          <mxGeometry x="5500" y="1670" width="10" height="160" as="geometry" />
        </mxCell>
        <mxCell id="Q2xLL5PEza8aKWVjb2cV-2" value="sw[1]" style="line;strokeWidth=2;direction=south;html=1;fontSize=80;labelPosition=center;verticalLabelPosition=top;align=center;verticalAlign=bottom;" vertex="1" parent="1">
          <mxGeometry x="50" y="3270" width="10" height="160" as="geometry" />
        </mxCell>
        <mxCell id="Q2xLL5PEza8aKWVjb2cV-3" value="btn&#xa;[3:0]" style="line;strokeWidth=1;rotatable=0;dashed=0;labelPosition=left;align=right;verticalAlign=middle;spacingTop=0;spacingLeft=6;points=[];portConstraint=eastwest;fontSize=80;verticalLabelPosition=middle;" vertex="1" parent="1">
          <mxGeometry x="-460" y="3910" width="150" height="10" as="geometry" />
        </mxCell>
        <mxCell id="Q2xLL5PEza8aKWVjb2cV-4" value="mux_2x1" style="rounded=0;whiteSpace=wrap;html=1;fontSize=80;" vertex="1" parent="1">
          <mxGeometry x="7453" y="2960" width="547" height="480" as="geometry" />
        </mxCell>
        <mxCell id="Q2xLL5PEza8aKWVjb2cV-7" value="BTN&lt;br&gt;&lt;div&gt;[3:0]&lt;/div&gt;" style="rounded=0;whiteSpace=wrap;html=1;strokeWidth=10;fontSize=120;fontStyle=1" vertex="1" parent="1">
          <mxGeometry x="620" y="1100" width="650" height="330" as="geometry" />
        </mxCell>
        <mxCell id="Q2xLL5PEza8aKWVjb2cV-8" value="" style="line;strokeWidth=2;html=1;" vertex="1" parent="1">
          <mxGeometry x="3990" y="2370" width="180" height="10" as="geometry" />
        </mxCell>
        <mxCell id="Q2xLL5PEza8aKWVjb2cV-9" value="" style="line;strokeWidth=2;html=1;" vertex="1" parent="1">
          <mxGeometry x="3990" y="2680" width="180" height="10" as="geometry" />
        </mxCell>
        <mxCell id="Q2xLL5PEza8aKWVjb2cV-10" value="" style="line;strokeWidth=2;html=1;" vertex="1" parent="1">
          <mxGeometry x="4140" y="2610" width="30" height="10" as="geometry" />
        </mxCell>
        <mxCell id="Q2xLL5PEza8aKWVjb2cV-17" value="" style="line;strokeWidth=2;html=1;" vertex="1" parent="1">
          <mxGeometry x="3990" y="2920" width="180" height="10" as="geometry" />
        </mxCell>
        <mxCell id="Q2xLL5PEza8aKWVjb2cV-19" value="" style="line;strokeWidth=2;html=1;" vertex="1" parent="1">
          <mxGeometry x="3990" y="3155" width="180" height="10" as="geometry" />
        </mxCell>
        <mxCell id="Q2xLL5PEza8aKWVjb2cV-21" value="" style="line;strokeWidth=2;html=1;" vertex="1" parent="1">
          <mxGeometry x="4140" y="2520" width="340" height="10" as="geometry" />
        </mxCell>
        <mxCell id="Q2xLL5PEza8aKWVjb2cV-22" value="" style="line;strokeWidth=2;direction=south;html=1;" vertex="1" parent="1">
          <mxGeometry x="4139" y="2520" width="10" height="100" as="geometry" />
        </mxCell>
        <mxCell id="Q2xLL5PEza8aKWVjb2cV-23" value="" style="line;strokeWidth=2;direction=south;html=1;" vertex="1" parent="1">
          <mxGeometry x="4470" y="2430" width="10" height="100" as="geometry" />
        </mxCell>
        <mxCell id="Q2xLL5PEza8aKWVjb2cV-24" value="" style="line;strokeWidth=2;html=1;" vertex="1" parent="1">
          <mxGeometry x="4450" y="2430" width="30" height="10" as="geometry" />
        </mxCell>
        <mxCell id="Q2xLL5PEza8aKWVjb2cV-25" value="" style="line;strokeWidth=2;html=1;" vertex="1" parent="1">
          <mxGeometry x="4140.5" y="2850" width="30" height="10" as="geometry" />
        </mxCell>
        <mxCell id="Q2xLL5PEza8aKWVjb2cV-26" value="" style="line;strokeWidth=2;html=1;" vertex="1" parent="1">
          <mxGeometry x="4140.5" y="2760" width="340" height="10" as="geometry" />
        </mxCell>
        <mxCell id="Q2xLL5PEza8aKWVjb2cV-27" value="" style="line;strokeWidth=2;direction=south;html=1;" vertex="1" parent="1">
          <mxGeometry x="4139.5" y="2760" width="10" height="100" as="geometry" />
        </mxCell>
        <mxCell id="Q2xLL5PEza8aKWVjb2cV-28" value="" style="line;strokeWidth=2;direction=south;html=1;" vertex="1" parent="1">
          <mxGeometry x="4470.5" y="2670" width="10" height="100" as="geometry" />
        </mxCell>
        <mxCell id="Q2xLL5PEza8aKWVjb2cV-29" value="" style="line;strokeWidth=2;html=1;" vertex="1" parent="1">
          <mxGeometry x="4450.5" y="2670" width="30" height="10" as="geometry" />
        </mxCell>
        <mxCell id="Q2xLL5PEza8aKWVjb2cV-30" value="" style="line;strokeWidth=2;html=1;" vertex="1" parent="1">
          <mxGeometry x="4140" y="3085" width="30" height="10" as="geometry" />
        </mxCell>
        <mxCell id="Q2xLL5PEza8aKWVjb2cV-31" value="" style="line;strokeWidth=2;html=1;" vertex="1" parent="1">
          <mxGeometry x="4140" y="2995" width="340" height="10" as="geometry" />
        </mxCell>
        <mxCell id="Q2xLL5PEza8aKWVjb2cV-32" value="" style="line;strokeWidth=2;direction=south;html=1;" vertex="1" parent="1">
          <mxGeometry x="4139" y="2995" width="10" height="100" as="geometry" />
        </mxCell>
        <mxCell id="Q2xLL5PEza8aKWVjb2cV-33" value="" style="line;strokeWidth=2;direction=south;html=1;" vertex="1" parent="1">
          <mxGeometry x="4470" y="2905" width="10" height="100" as="geometry" />
        </mxCell>
        <mxCell id="Q2xLL5PEza8aKWVjb2cV-34" value="" style="line;strokeWidth=2;html=1;" vertex="1" parent="1">
          <mxGeometry x="4450" y="2905" width="30" height="10" as="geometry" />
        </mxCell>
        <mxCell id="Q2xLL5PEza8aKWVjb2cV-35" value="" style="line;strokeWidth=2;html=1;" vertex="1" parent="1">
          <mxGeometry x="4450" y="2520" width="30" height="10" as="geometry" />
        </mxCell>
        <mxCell id="Q2xLL5PEza8aKWVjb2cV-37" value="" style="line;strokeWidth=2;html=1;" vertex="1" parent="1">
          <mxGeometry x="3700" y="5060" width="49" height="10" as="geometry" />
        </mxCell>
        <mxCell id="Q2xLL5PEza8aKWVjb2cV-38" value="" style="line;strokeWidth=2;html=1;" vertex="1" parent="1">
          <mxGeometry x="3700" y="4960" width="900" height="10" as="geometry" />
        </mxCell>
        <mxCell id="Q2xLL5PEza8aKWVjb2cV-39" value="" style="line;strokeWidth=2;direction=south;html=1;" vertex="1" parent="1">
          <mxGeometry x="3700" y="4960" width="10" height="110" as="geometry" />
        </mxCell>
        <mxCell id="Q2xLL5PEza8aKWVjb2cV-40" value="" style="line;strokeWidth=2;direction=south;html=1;" vertex="1" parent="1">
          <mxGeometry x="4589.5" y="4870" width="10" height="100" as="geometry" />
        </mxCell>
        <mxCell id="Q2xLL5PEza8aKWVjb2cV-41" value="" style="line;strokeWidth=2;html=1;" vertex="1" parent="1">
          <mxGeometry x="4539" y="4870" width="61" height="10" as="geometry" />
        </mxCell>
        <mxCell id="Q2xLL5PEza8aKWVjb2cV-42" value="" style="line;strokeWidth=2;html=1;" vertex="1" parent="1">
          <mxGeometry x="3690" y="5430" width="60" height="10" as="geometry" />
        </mxCell>
        <mxCell id="Q2xLL5PEza8aKWVjb2cV-43" value="" style="line;strokeWidth=2;html=1;" vertex="1" parent="1">
          <mxGeometry x="3690" y="5310" width="920" height="10" as="geometry" />
        </mxCell>
        <mxCell id="Q2xLL5PEza8aKWVjb2cV-44" value="" style="line;strokeWidth=2;direction=south;html=1;" vertex="1" parent="1">
          <mxGeometry x="3690" y="5310" width="10" height="130" as="geometry" />
        </mxCell>
        <mxCell id="Q2xLL5PEza8aKWVjb2cV-45" value="" style="line;strokeWidth=2;direction=south;html=1;" vertex="1" parent="1">
          <mxGeometry x="4599.5" y="5220" width="10" height="100" as="geometry" />
        </mxCell>
        <mxCell id="Q2xLL5PEza8aKWVjb2cV-46" value="" style="line;strokeWidth=2;html=1;" vertex="1" parent="1">
          <mxGeometry x="4549" y="5220" width="61" height="10" as="geometry" />
        </mxCell>
        <mxCell id="Q2xLL5PEza8aKWVjb2cV-47" value="" style="line;strokeWidth=2;html=1;" vertex="1" parent="1">
          <mxGeometry x="3690" y="5820" width="60" height="10" as="geometry" />
        </mxCell>
        <mxCell id="Q2xLL5PEza8aKWVjb2cV-48" value="" style="line;strokeWidth=2;html=1;" vertex="1" parent="1">
          <mxGeometry x="3690" y="5700" width="920" height="10" as="geometry" />
        </mxCell>
        <mxCell id="Q2xLL5PEza8aKWVjb2cV-49" value="" style="line;strokeWidth=2;direction=south;html=1;" vertex="1" parent="1">
          <mxGeometry x="3690" y="5700" width="10" height="130" as="geometry" />
        </mxCell>
        <mxCell id="Q2xLL5PEza8aKWVjb2cV-50" value="" style="line;strokeWidth=2;direction=south;html=1;" vertex="1" parent="1">
          <mxGeometry x="4599.5" y="5610" width="10" height="100" as="geometry" />
        </mxCell>
        <mxCell id="Q2xLL5PEza8aKWVjb2cV-51" value="" style="line;strokeWidth=2;html=1;" vertex="1" parent="1">
          <mxGeometry x="4549" y="5610" width="61" height="10" as="geometry" />
        </mxCell>
        <mxCell id="Q2xLL5PEza8aKWVjb2cV-52" value="" style="line;strokeWidth=2;html=1;" vertex="1" parent="1">
          <mxGeometry x="4538.5" y="4730" width="541.5" height="10" as="geometry" />
        </mxCell>
        <mxCell id="Q2xLL5PEza8aKWVjb2cV-53" value="" style="line;strokeWidth=2;html=1;" vertex="1" parent="1">
          <mxGeometry x="4549" y="5070" width="541.5" height="10" as="geometry" />
        </mxCell>
        <mxCell id="Q2xLL5PEza8aKWVjb2cV-54" value="" style="line;strokeWidth=2;html=1;" vertex="1" parent="1">
          <mxGeometry x="4549" y="5490" width="541.5" height="10" as="geometry" />
        </mxCell>
        <mxCell id="Q2xLL5PEza8aKWVjb2cV-55" value="" style="line;strokeWidth=2;html=1;" vertex="1" parent="1">
          <mxGeometry x="4549" y="5835" width="541.5" height="10" as="geometry" />
        </mxCell>
        <mxCell id="Q2xLL5PEza8aKWVjb2cV-56" value="" style="line;strokeWidth=2;html=1;" vertex="1" parent="1">
          <mxGeometry x="4550" y="6040" width="61" height="10" as="geometry" />
        </mxCell>
        <mxCell id="Q2xLL5PEza8aKWVjb2cV-57" value="" style="line;strokeWidth=2;html=1;" vertex="1" parent="1">
          <mxGeometry x="4450" y="3085" width="640" height="10" as="geometry" />
        </mxCell>
        <mxCell id="Q2xLL5PEza8aKWVjb2cV-58" value="" style="line;strokeWidth=2;html=1;" vertex="1" parent="1">
          <mxGeometry x="4450" y="2850" width="640" height="10" as="geometry" />
        </mxCell>
        <mxCell id="Q2xLL5PEza8aKWVjb2cV-59" value="" style="line;strokeWidth=2;html=1;" vertex="1" parent="1">
          <mxGeometry x="4450.5" y="2610" width="640" height="10" as="geometry" />
        </mxCell>
        <mxCell id="Q2xLL5PEza8aKWVjb2cV-60" value="" style="line;strokeWidth=2;html=1;" vertex="1" parent="1">
          <mxGeometry x="4450.5" y="2375" width="640" height="10" as="geometry" />
        </mxCell>
        <mxCell id="Q2xLL5PEza8aKWVjb2cV-61" value="" style="line;strokeWidth=2;html=1;" vertex="1" parent="1">
          <mxGeometry x="5922" y="3845" width="608" height="10" as="geometry" />
        </mxCell>
        <mxCell id="Q2xLL5PEza8aKWVjb2cV-62" value="" style="line;strokeWidth=2;html=1;" vertex="1" parent="1">
          <mxGeometry x="5922" y="4425" width="608" height="10" as="geometry" />
        </mxCell>
        <mxCell id="Q2xLL5PEza8aKWVjb2cV-63" value="" style="line;strokeWidth=2;html=1;" vertex="1" parent="1">
          <mxGeometry x="5920" y="4980" width="608" height="10" as="geometry" />
        </mxCell>
        <mxCell id="Q2xLL5PEza8aKWVjb2cV-64" value="" style="line;strokeWidth=2;html=1;" vertex="1" parent="1">
          <mxGeometry x="5922" y="5560" width="608" height="10" as="geometry" />
        </mxCell>
        <mxCell id="Q2xLL5PEza8aKWVjb2cV-65" value="clk" style="line;strokeWidth=3;rotatable=0;dashed=0;labelPosition=left;align=right;verticalAlign=middle;spacingTop=0;spacingLeft=6;points=[];portConstraint=eastwest;fontSize=80;verticalLabelPosition=middle;" vertex="1" parent="1">
          <mxGeometry x="6410" y="2305" width="70" height="10" as="geometry" />
        </mxCell>
        <mxCell id="Q2xLL5PEza8aKWVjb2cV-66" value="" style="line;strokeWidth=2;html=1;" vertex="1" parent="1">
          <mxGeometry x="7330" y="3835" width="190" height="10" as="geometry" />
        </mxCell>
        <mxCell id="Q2xLL5PEza8aKWVjb2cV-67" value="" style="line;strokeWidth=2;html=1;" vertex="1" parent="1">
          <mxGeometry x="7330" y="4410" width="190" height="10" as="geometry" />
        </mxCell>
        <mxCell id="Q2xLL5PEza8aKWVjb2cV-68" value="" style="line;strokeWidth=2;html=1;" vertex="1" parent="1">
          <mxGeometry x="7330" y="4980" width="190" height="10" as="geometry" />
        </mxCell>
        <mxCell id="Q2xLL5PEza8aKWVjb2cV-69" value="" style="line;strokeWidth=2;html=1;" vertex="1" parent="1">
          <mxGeometry x="7330" y="5560" width="190" height="10" as="geometry" />
        </mxCell>
        <mxCell id="Q2xLL5PEza8aKWVjb2cV-70" value="" style="line;strokeWidth=2;html=1;" vertex="1" parent="1">
          <mxGeometry x="8067" y="4410" width="113" height="10" as="geometry" />
        </mxCell>
        <mxCell id="Q2xLL5PEza8aKWVjb2cV-71" value="" style="line;strokeWidth=2;html=1;" vertex="1" parent="1">
          <mxGeometry x="8067" y="4930" width="113" height="10" as="geometry" />
        </mxCell>
        <mxCell id="Q2xLL5PEza8aKWVjb2cV-72" value="" style="line;strokeWidth=2;direction=south;html=1;" vertex="1" parent="1">
          <mxGeometry x="8458.5" y="5120" width="10" height="210" as="geometry" />
        </mxCell>
        <mxCell id="Q2xLL5PEza8aKWVjb2cV-73" value="" style="line;strokeWidth=1;rotatable=0;dashed=0;labelPosition=right;align=left;verticalAlign=middle;spacingTop=0;spacingLeft=6;points=[];portConstraint=eastwest;" vertex="1" parent="1">
          <mxGeometry x="8737" y="5580" width="333" height="10" as="geometry" />
        </mxCell>
        <mxCell id="Q2xLL5PEza8aKWVjb2cV-74" value="" style="line;strokeWidth=2;html=1;" vertex="1" parent="1">
          <mxGeometry x="7027" y="2307.5" width="283" height="5" as="geometry" />
        </mxCell>
        <mxCell id="Q2xLL5PEza8aKWVjb2cV-75" value="" style="line;strokeWidth=2;html=1;" vertex="1" parent="1">
          <mxGeometry x="7857" y="2307.5" width="283" height="5" as="geometry" />
        </mxCell>
        <mxCell id="Q2xLL5PEza8aKWVjb2cV-76" value="" style="line;strokeWidth=2;html=1;" vertex="1" parent="1">
          <mxGeometry x="8684" y="2302.5" width="386" height="5" as="geometry" />
        </mxCell>
      </root>
    </mxGraphModel>
  </diagram>
</mxfile>
